<?xml version="1.0" standalone="no"?>
<!DOCTYPE svg PUBLIC "-//W3C//DTD SVG 20010904//EN"
 "http://www.w3.org/TR/2001/REC-SVG-20010904/DTD/svg10.dtd">
<svg version="1.0" xmlns="http://www.w3.org/2000/svg"
 width="500.000000pt" height="357.000000pt" viewBox="0 0 500.000000 357.000000"
 preserveAspectRatio="xMidYMid meet">
<metadata>
Created by potrace 1.16, written by Peter Selinger 2001-2019
</metadata>
<g transform="translate(0.000000,357.000000) scale(0.100000,-0.100000)"
fill="#000000" stroke="none">
<path d="M356 3310 c-16 -5 -44 -24 -63 -42 l-33 -32 0 -459 0 -460 34 -32
c20 -18 54 -37 80 -44 31 -8 273 -11 813 -11 l768 0 125 -34 c69 -19 181 -50
250 -71 185 -55 350 -101 390 -109 60 -11 19 15 -180 115 l-185 94 125 5 c135
6 171 18 209 66 21 26 21 35 21 484 l0 457 -25 27 c-54 59 4 56 -1197 55 -607
0 -1116 -5 -1132 -9z m2272 -39 c21 -11 43 -31 50 -46 9 -19 12 -143 12 -454
0 -422 0 -429 -21 -455 -33 -41 -62 -49 -204 -55 l-130 -6 0 -25 c0 -21 15
-33 110 -83 61 -32 99 -55 86 -52 -12 4 -123 36 -245 71 -353 103 -247 94
-1117 94 -670 0 -774 2 -806 15 -79 33 -73 -5 -73 500 l0 452 23 20 c12 11 31
25 42 31 14 8 338 11 1128 12 1073 0 1109 -1 1145 -19z"/>
<path d="M538 3154 c-53 -28 -57 -78 -8 -104 32 -17 60 -11 91 19 34 35 36 54
9 81 -23 23 -54 25 -92 4z"/>
<path d="M3525 2874 c-84 -17 -127 -29 -132 -37 -4 -6 12 -6 43 -1 27 5 90 9
139 9 81 0 97 -3 160 -33 79 -37 110 -63 167 -140 130 -174 158 -358 83 -534
-15 -35 12 -17 35 23 31 57 39 197 16 286 -29 116 -122 272 -196 332 -85 68
-229 112 -315 95z"/>
<path d="M3854 2859 c-9 -16 0 -20 74 -34 129 -25 202 -79 280 -208 22 -37 36
-78 47 -141 33 -192 16 -281 -110 -581 -59 -138 -85 -215 -73 -215 5 0 11 8
15 18 3 9 24 60 46 112 22 52 55 131 74 175 98 231 110 462 33 620 -32 67
-127 178 -171 200 -47 25 -208 65 -215 54z"/>
<path d="M3288 2833 c-33 -8 -18 -23 22 -23 68 0 179 -60 243 -131 89 -98 146
-231 147 -341 0 -26 5 -50 12 -54 19 -12 3 153 -21 217 -42 109 -129 222 -214
276 -37 24 -148 65 -165 62 -4 -1 -15 -3 -24 -6z"/>
<path d="M4132 2809 c2 -7 29 -18 59 -25 80 -16 151 -57 223 -127 82 -81 101
-136 93 -271 -6 -114 -32 -193 -131 -403 -78 -166 -113 -281 -95 -315 6 -11
20 -17 37 -17 25 2 25 2 3 6 -22 5 -23 8 -18 66 4 51 19 91 85 228 84 173 99
212 127 320 22 82 21 226 -1 293 -23 68 -124 165 -219 212 -80 38 -171 57
-163 33z"/>
<path d="M3050 2049 c-86 -52 -121 -108 -98 -155 19 -40 74 -74 119 -74 38 0
38 0 28 -27 -27 -70 -1 -229 43 -270 66 -60 123 -59 198 2 124 101 158 125
225 158 39 19 71 34 73 32 2 -2 -37 -42 -87 -90 -50 -49 -91 -93 -91 -100 0
-34 150 -42 277 -16 55 12 117 21 137 21 26 0 36 4 36 15 0 17 -11 17 -195
-11 -102 -15 -211 -9 -209 11 0 6 40 44 88 86 95 82 109 98 97 117 -16 27
-179 -59 -312 -164 -107 -84 -121 -90 -177 -68 -37 14 -48 24 -64 62 -26 59
-29 211 -4 251 5 8 -9 11 -49 11 -49 0 -60 4 -86 29 -37 37 -37 62 1 105 60
68 148 84 172 30 14 -30 30 -31 26 -3 -4 27 -43 57 -83 64 -21 4 -41 -1 -65
-16z"/>
<path d="M1163 1969 c-29 -11 -86 -49 -130 -87 -70 -60 -84 -78 -130 -171
l-53 -103 0 -97 c0 -53 5 -112 10 -131 12 -42 71 -134 124 -190 49 -53 56 -98
28 -164 -12 -25 -17 -46 -12 -46 15 0 38 41 50 92 12 46 12 46 42 36 30 -11
30 -12 24 -62 -3 -28 -8 -64 -12 -81 -10 -55 24 1 37 61 7 30 15 54 18 54 3 0
25 -7 48 -16 34 -13 43 -22 43 -41 0 -14 13 -38 30 -54 26 -27 36 -30 82 -29
73 2 78 2 78 -11 0 -6 -16 -48 -37 -93 -29 -66 -48 -92 -101 -141 -85 -78
-142 -189 -142 -276 0 -52 3 -61 33 -88 80 -76 173 -94 487 -95 135 0 279 5
320 11 41 6 131 19 200 28 156 20 249 41 269 59 9 8 43 19 76 25 93 17 96 24
85 161 -16 184 -29 250 -56 277 -28 28 -48 21 -79 -26 -24 -37 -29 -38 -43 -6
-23 50 -85 42 -119 -15 -9 -17 -20 -30 -24 -30 -4 0 -33 33 -64 73 -32 39 -77
88 -99 108 l-41 37 54 53 c29 30 62 70 72 91 18 35 19 36 56 26 82 -20 120 31
93 127 -17 62 -103 204 -149 245 l-38 35 10 59 11 59 -32 28 c-18 16 -41 29
-51 29 -29 0 -84 -42 -106 -82 l-20 -36 -85 72 c-228 194 -474 324 -645 340
-47 4 -72 1 -112 -15z m294 -64 c107 -38 143 -57 261 -139 76 -52 174 -130
219 -173 l81 -78 16 47 c28 79 101 122 140 82 18 -18 20 -42 6 -98 -9 -39 -8
-41 47 -100 69 -74 133 -201 133 -263 0 -37 -3 -43 -24 -49 -13 -3 -41 -1 -62
5 -21 6 -119 9 -228 8 l-191 -2 -72 -34 c-68 -32 -93 -54 -74 -66 5 -2 30 7
55 21 80 45 127 54 288 55 82 0 152 -2 155 -5 9 -9 -37 -75 -79 -110 -106 -91
-259 -142 -393 -131 -114 10 -156 20 -243 63 -67 33 -82 37 -112 29 -44 -11
-100 13 -100 43 0 33 19 60 40 60 11 0 20 7 20 15 0 18 -33 20 -60 3 -16 -10
-34 -7 -107 17 -79 27 -95 37 -154 95 -36 36 -82 94 -102 130 -34 61 -36 72
-39 165 -3 100 -2 101 39 187 44 93 97 157 174 213 105 78 169 79 366 10z
m767 -1133 c65 -82 67 -85 56 -118 -14 -42 -35 -49 -153 -49 -72 0 -87 -3 -84
-15 2 -12 21 -14 112 -12 60 2 117 8 126 13 9 4 19 21 22 36 7 34 65 122 90
137 29 17 54 -23 62 -97 13 -121 11 -250 -5 -284 -17 -38 -72 -58 -195 -72
-44 -5 -132 -17 -195 -27 -84 -13 -178 -18 -350 -18 -286 0 -406 16 -481 67
-30 20 -34 28 -37 72 -4 68 55 190 123 258 27 26 52 47 56 47 12 0 89 165 89
190 0 14 5 20 13 17 101 -45 146 -58 230 -67 53 -5 102 -8 109 -5 7 2 38 6 68
9 33 2 84 18 129 38 l74 33 37 -35 c21 -19 68 -73 104 -118z m344 -9 c9 -17
25 -145 36 -285 5 -66 0 -73 -64 -83 l-46 -7 0 104 c-1 57 -4 123 -8 148 -6
40 -3 51 24 93 32 51 44 57 58 30z"/>
<path d="M1473 675 c-16 -62 -18 -77 -7 -86 11 -9 10 -18 -7 -51 -11 -22 -17
-48 -14 -58 3 -11 32 -33 64 -49 47 -24 71 -29 126 -30 67 0 69 0 112 43 29
30 43 52 43 70 0 16 4 25 10 21 6 -3 10 4 10 17 0 55 -55 197 -70 182 -6 -6 0
-32 15 -69 38 -94 38 -95 -51 -95 -87 0 -214 26 -214 44 0 6 6 36 14 66 8 30
12 58 10 62 -12 19 -22 3 -41 -67z m224 -132 c35 2 65 2 67 0 2 -3 0 -17 -5
-33 -12 -32 -45 -65 -76 -74 -18 -6 -21 -4 -16 15 l6 21 -43 -22 c-44 -22 -81
-21 -62 3 9 10 0 13 -41 12 -62 0 -71 18 -36 69 l22 33 61 -15 c34 -7 89 -12
123 -9z"/>
<path d="M4276 1621 c-3 -5 1 -14 9 -21 8 -7 15 -15 15 -19 0 -10 -56 -41 -72
-41 -7 1 -1 8 15 16 15 8 27 19 27 24 0 14 -5 13 -61 -16 -84 -42 -192 -65
-293 -62 -87 2 -89 2 -113 -27 -71 -88 -260 -434 -285 -524 -62 -224 -63 -232
-50 -240 7 -4 46 -14 85 -21 99 -17 109 -23 105 -68 -3 -36 -4 -37 -80 -64
-43 -15 -97 -38 -120 -52 -43 -25 -84 -78 -74 -95 14 -22 107 -44 213 -48 62
-3 110 -9 108 -13 -23 -38 74 -61 230 -56 133 5 374 30 511 55 110 19 178 44
203 75 19 22 -6 58 -63 91 -47 27 -58 49 -70 132 -8 56 -2 68 47 88 95 38 92
35 95 105 4 77 -19 193 -54 281 -43 107 -162 331 -213 400 -50 68 -105 116
-115 100z m42 -633 c0 -7 3 -22 7 -33 3 -11 0 -28 -7 -38 -13 -18 -15 -17 -39
2 -27 21 -39 19 -39 -7 0 -22 -30 -52 -52 -52 -10 0 -24 11 -30 25 -16 35 -38
32 -38 -4 0 -40 -14 -46 -43 -19 -25 23 -51 84 -42 97 2 4 35 13 72 19 144 25
209 28 211 10z m170 -323 c8 -92 15 -118 43 -150 l30 -33 -48 -15 c-116 -37
-343 -70 -343 -49 0 6 -25 38 -56 71 -51 56 -55 63 -52 103 l3 42 117 13 c65
8 153 22 195 33 98 24 107 22 111 -15z m-586 -21 c139 -7 137 -6 130 -71 -3
-22 -10 -33 -21 -33 -9 0 -54 -16 -101 -35 -100 -41 -90 -38 -90 -21 0 17 -75
81 -106 90 -17 5 -23 16 -26 47 -2 22 -2 41 -1 43 2 2 23 0 46 -5 23 -4 99
-11 169 -15z m-154 -124 c52 -37 69 -66 44 -74 -27 -9 -171 11 -230 31 l-54
19 74 26 c95 34 116 34 166 -2z m353 -57 l44 -48 -80 -3 c-53 -2 -102 3 -144
14 l-64 17 36 19 c34 17 127 46 153 47 6 1 31 -20 55 -46z"/>
</g>
</svg>
