<?xml version="1.0" standalone="no"?>
<!DOCTYPE svg PUBLIC "-//W3C//DTD SVG 20010904//EN"
 "http://www.w3.org/TR/2001/REC-SVG-20010904/DTD/svg10.dtd">
<svg version="1.0" xmlns="http://www.w3.org/2000/svg"
 width="512.000000pt" height="512.000000pt" viewBox="0 0 512.000000 512.000000"
 preserveAspectRatio="xMidYMid meet">
<metadata>
Created by potrace 1.16, written by Peter Selinger 2001-2019
</metadata>
<g transform="translate(0.000000,512.000000) scale(0.100000,-0.100000)"
fill="#000000" stroke="none">
<path d="M2168 4770 c-27 -5 -68 -16 -93 -26 -38 -14 -45 -21 -45 -44 0 -26 3
-28 41 -28 22 -1 53 -3 67 -6 21 -4 36 3 70 33 40 35 43 40 31 60 -8 11 -16
20 -19 20 -3 -1 -26 -5 -52 -9z"/>
<path d="M2176 4467 c-44 -48 -47 -55 -41 -91 3 -22 8 -43 11 -48 7 -11 241
-10 249 2 8 13 -5 61 -15 55 -5 -3 -6 3 -3 13 2 10 1 34 -4 52 -9 35 -5 33
-124 63 -22 6 -33 -1 -73 -46z"/>
<path d="M2603 4123 c0 -26 -3 -160 -7 -296 -8 -264 -1 -337 19 -202 15 101
14 520 -1 535 -8 8 -11 -3 -11 -37z"/>
<path d="M2758 4098 c10 -13 13 -48 12 -130 -1 -62 -2 -149 -1 -193 0 -44 -4
-113 -10 -153 -11 -67 -10 -74 7 -87 18 -13 19 -10 26 58 3 40 7 146 8 237 1
173 -9 249 -39 272 -14 12 -14 11 -3 -4z"/>
<path d="M4457 4043 c-15 -15 -5 -22 36 -25 35 -3 43 -7 45 -26 4 -28 -18 -56
-59 -72 -27 -12 -29 -16 -29 -71 0 -56 1 -59 25 -59 27 0 99 33 110 50 4 6 10
8 15 5 4 -3 11 3 14 12 4 9 1 20 -5 24 -11 7 -10 22 7 95 6 27 5 28 -8 10 -14
-17 -15 -17 -30 6 -25 38 -102 70 -121 51z"/>
<path d="M4030 3820 c-13 -8 -12 -10 3 -10 30 0 19 -18 -19 -30 -20 -7 -51
-10 -70 -7 -19 3 -34 2 -34 -3 0 -5 -12 -16 -27 -24 l-28 -15 30 -1 30 -1 -35
-19 c-19 -11 -48 -19 -63 -20 -31 0 -87 25 -87 40 0 6 -10 10 -22 10 -21 0
-21 -1 -3 -14 17 -12 14 -15 -36 -39 -33 -16 -81 -29 -122 -33 -62 -6 -70 -10
-80 -33 -6 -14 -18 -34 -26 -44 -14 -17 -14 -20 2 -28 13 -8 16 -18 11 -47 -7
-44 21 -87 61 -94 28 -6 49 19 40 45 -8 20 14 109 32 129 9 10 24 18 35 18 16
0 18 -6 12 -69 -5 -46 -3 -70 5 -75 6 -4 11 -18 11 -31 0 -27 29 -43 32 -17 1
9 2 59 3 110 1 92 1 92 36 122 18 16 37 29 42 30 4 0 7 -33 7 -72 0 -40 5 -91
12 -113 6 -22 11 -60 12 -85 l1 -45 -48 -12 c-33 -8 -65 -26 -97 -55 -45 -40
-48 -46 -49 -93 -1 -28 6 -77 14 -108 20 -77 19 -104 -4 -117 -28 -14 -60 -13
-117 7 -63 21 -95 52 -105 100 -6 28 -7 19 -4 -36 3 -59 11 -90 38 -145 19
-39 37 -88 41 -108 17 -97 162 -140 307 -93 69 23 94 46 119 112 17 46 46 81
186 223 92 93 179 190 195 217 16 26 39 60 50 75 15 18 19 32 14 45 -6 15 -8
15 -12 3 -12 -41 -31 -64 -67 -82 -49 -25 -112 -73 -146 -111 -14 -16 -48 -53
-77 -84 l-52 -55 -29 22 c-38 28 -74 21 -97 -18 -20 -32 -78 -72 -105 -72 -46
0 -54 85 -19 202 18 61 23 68 62 87 24 12 53 21 65 21 21 0 28 -5 58 -45 15
-20 15 -19 5 2 -22 45 -12 181 22 295 30 98 35 109 72 136 31 22 49 28 73 24
69 -10 112 27 112 98 0 27 -3 30 -32 30 -30 -1 -31 -2 -15 -14 16 -13 16 -15
-13 -40 -46 -38 -59 -34 -50 14 4 22 5 42 2 45 -9 8 -46 5 -62 -5z m-114 -191
c9 -15 -37 -157 -53 -163 -37 -15 -53 22 -53 120 l0 54 49 0 c28 0 53 -5 57
-11z"/>
<path d="M1352 3456 c0 -212 0 -210 -105 -202 -70 6 -80 4 -95 -13 -16 -19
-39 -25 -89 -22 -13 1 -28 12 -36 28 -13 23 -21 27 -61 28 -40 0 -46 -2 -46
-20 1 -32 36 -101 60 -118 14 -10 34 -14 50 -11 21 5 30 0 43 -20 25 -37 100
-33 110 6 5 19 7 19 29 4 32 -23 93 -21 115 3 13 14 23 17 33 11 33 -21 77
-11 109 25 49 56 58 82 71 218 11 109 11 131 -1 142 -12 12 -14 11 -15 -8 -13
-217 -37 -277 -112 -277 l-29 0 -6 128 c-3 70 -4 152 0 182 4 42 2 59 -10 68
-13 11 -15 -7 -15 -152z"/>
<path d="M1679 3597 c-10 -8 -18 -36 -23 -82 -4 -38 -13 -95 -21 -125 -7 -30
-16 -84 -20 -119 -3 -35 -17 -92 -30 -126 -14 -34 -25 -67 -25 -73 0 -26 -130
-102 -176 -102 -14 0 -38 -6 -52 -14 -15 -8 -35 -17 -44 -20 -32 -10 -19 -23
43 -41 73 -22 92 -47 57 -77 -23 -20 -49 -21 -147 -2 -18 4 -57 1 -86 -6 -39
-9 -57 -10 -73 -1 -28 15 -28 23 3 59 l25 30 -71 71 c-39 39 -68 71 -64 71 5
0 0 9 -10 20 -9 10 -21 34 -26 52 -8 29 -8 28 -4 -12 7 -72 23 -114 64 -177
21 -32 46 -82 56 -111 14 -43 24 -56 59 -77 81 -48 247 -52 313 -9 24 15 56
71 67 117 4 16 31 52 60 82 63 62 87 124 111 285 9 58 19 114 22 125 4 11 7
77 8 147 0 71 0 128 0 128 0 0 -7 -6 -16 -13z"/>
<path d="M2872 3436 c8 -26 7 -49 -6 -100 -9 -36 -16 -75 -16 -87 0 -42 -53
-178 -79 -203 -32 -30 -118 -76 -142 -76 -23 0 -109 -41 -109 -52 0 -4 22 -14
49 -22 89 -26 106 -42 77 -71 -9 -9 -49 -15 -122 -19 -60 -2 -125 -6 -143 -8
-29 -2 -38 2 -50 24 -14 25 -14 28 7 51 l22 23 -70 75 c-38 41 -70 82 -70 92
0 9 -4 17 -9 17 -5 0 -12 8 -14 18 -3 9 -3 -3 -1 -27 4 -43 25 -95 78 -191 14
-25 35 -66 46 -92 32 -72 73 -92 180 -92 154 1 222 38 236 129 6 41 16 59 60
106 37 38 60 73 73 111 44 129 56 339 21 396 -25 41 -31 41 -18 -2z"/>
<path d="M5025 2624 c-6 -1 -57 -8 -114 -15 -67 -8 -97 -15 -85 -20 18 -7 17
-8 -3 -8 -12 -1 -23 4 -25 9 -2 8 -25 8 -73 1 -58 -8 -205 -20 -252 -21 -7 0
-13 -7 -13 -15 0 -8 9 -15 20 -15 47 0 558 51 593 59 38 9 38 9 20 -11 -18
-21 -18 -21 5 -7 12 8 22 21 22 30 0 13 -9 17 -43 16 -23 0 -47 -1 -52 -3z"/>
<path d="M3734 2407 c0 -23 -1 -118 -3 -212 -3 -160 2 -212 31 -335 6 -25 11
-50 11 -57 0 -7 6 -14 14 -17 16 -6 16 -9 2 34 -7 21 -14 149 -18 317 -5 232
-9 285 -21 297 -13 14 -15 11 -16 -27z"/>
<path d="M5099 2446 c-2 -3 -103 -14 -224 -26 -121 -11 -258 -25 -305 -30 -47
-6 -93 -10 -102 -10 -11 0 -18 -8 -18 -20 0 -11 4 -20 8 -20 4 0 118 11 253
24 134 14 281 28 327 32 78 6 82 8 82 30 0 22 -10 31 -21 20z"/>
<path d="M3594 2313 c-1 -27 -1 -73 -1 -103 0 -30 0 -92 -1 -137 -1 -45 3 -94
9 -110 6 -15 20 -66 30 -113 34 -150 39 -163 34 -100 -2 30 -11 98 -19 150 -9
55 -16 157 -16 243 0 106 -4 157 -14 182 -8 19 -16 35 -18 35 -2 0 -4 -21 -4
-47z"/>
<path d="M2519 2041 c18 -14 21 -22 14 -35 -9 -16 -11 -16 -22 -2 -9 10 -30
16 -57 16 -38 0 -45 -4 -59 -31 -9 -17 -15 -46 -12 -67 l4 -37 1 42 c2 31 8
46 24 57 31 22 70 20 101 -4 29 -23 29 -50 -4 -126 -13 -32 -24 -42 -47 -47
-37 -7 -69 1 -76 20 -3 8 -10 12 -16 8 -6 -4 -8 15 -7 49 3 43 0 53 -9 45 -8
-7 -14 -7 -19 1 -8 12 -55 13 -75 0 -23 -14 -6 -22 24 -10 44 16 66 -2 66 -55
0 -24 -4 -55 -9 -68 -18 -48 -82 -47 -100 1 l-9 27 -1 -34 c-1 -39 -27 -66
-74 -77 -28 -6 -30 -8 -12 -15 33 -13 43 -10 79 21 22 20 37 27 41 20 4 -6 14
-9 22 -6 8 3 11 1 8 -4 -3 -6 5 -10 18 -10 23 0 77 43 77 61 0 4 18 0 39 -8
38 -15 42 -14 75 5 24 14 36 17 40 9 2 -7 5 -4 5 5 1 14 5 13 26 -7 17 -18 35
-25 61 -25 23 0 41 -6 49 -17 17 -23 35 -8 35 30 0 17 5 68 12 114 11 79 11
84 -8 104 l-21 20 5 -32 c3 -17 1 -29 -4 -26 -5 2 -10 -20 -12 -50 -1 -30 -9
-68 -18 -85 -14 -26 -20 -29 -57 -27 -61 4 -68 19 -55 113 10 69 9 82 -6 111
-10 18 -28 36 -40 39 -20 5 -20 4 3 -13z"/>
<path d="M287 1885 c22 -41 49 -75 56 -69 9 10 78 -17 71 -27 -3 -5 -10 -7
-15 -4 -5 4 -9 1 -9 -4 0 -6 -8 -11 -17 -10 -12 0 -13 2 -5 6 10 4 10 8 1 19
-19 24 -30 5 -14 -26 8 -16 15 -31 15 -33 0 -3 -23 -22 -50 -43 -55 -42 -60
-59 -31 -113 17 -32 17 -37 3 -74 -15 -37 -14 -55 18 -296 33 -254 34 -256 66
-292 36 -42 41 -60 79 -303 31 -198 28 -235 -20 -283 -18 -18 -29 -36 -24 -39
5 -3 9 -1 9 5 0 6 7 8 15 4 9 -3 13 -8 10 -11 -11 -11 135 -91 154 -84 9 3 11
0 6 -8 -6 -9 -2 -9 16 1 13 7 55 13 94 12 46 0 62 2 45 7 -23 7 -22 8 10 11
19 1 64 2 100 2 49 -1 57 1 30 6 l-35 7 47 7 c26 3 62 4 80 2 24 -4 28 -3 13
3 -15 7 -8 10 33 16 33 4 60 3 73 -5 13 -7 19 -7 15 -1 -3 6 3 14 15 17 39 13
183 33 196 28 7 -3 13 -1 13 4 0 6 11 15 24 21 19 9 27 8 36 -4 7 -8 17 -14
23 -14 6 0 3 6 -7 13 -15 11 -14 15 16 46 18 19 27 31 19 26 -8 -5 -5 8 9 33
l23 41 -33 28 c-45 37 -67 92 -81 201 l-13 92 -49 0 -50 0 7 -37 c19 -113 28
-222 22 -256 -8 -41 -54 -100 -95 -121 -14 -8 -73 -22 -131 -31 -58 -9 -143
-23 -190 -31 -142 -23 -187 -16 -248 40 -40 36 -52 72 -77 224 -42 259 -41
249 -19 232 19 -14 19 -14 0 7 -36 42 12 136 88 173 l46 22 0 84 0 84 -50 0
-51 0 3 34 c1 19 4 34 7 34 19 -2 19 4 2 23 -22 24 -51 20 -51 -6 0 -9 -5 -13
-11 -9 -6 3 -15 0 -20 -7 -8 -11 -13 -9 -29 9 -22 26 -36 71 -46 148 l-6 52
46 -11 c25 -6 49 -7 53 -3 11 10 6 112 -7 152 -10 30 -9 38 5 54 10 11 22 17
28 13 6 -3 7 -1 3 6 -10 15 27 26 100 30 7 1 14 8 18 16 3 10 -7 21 -32 34
-20 10 -41 20 -47 21 -5 1 -12 4 -15 7 -3 4 1 3 8 -1 8 -5 12 2 12 23 l0 31
-69 0 c-64 0 -96 -11 -71 -23 6 -3 5 -4 -2 -3 -7 2 -13 7 -13 13 0 21 -41 49
-101 68 l-62 21 15 -31z"/>
<path d="M3896 1868 l32 -33 -32 -65 c-22 -46 -37 -65 -51 -65 -14 0 -23 -12
-33 -47 -17 -53 -34 -62 -87 -45 -27 8 -38 18 -44 41 l-9 31 -1 -30 c-2 -37
-20 -92 -44 -128 -20 -31 -26 -142 -9 -174 19 -36 23 -107 7 -127 -20 -27 -80
-23 -150 10 -67 32 -77 44 -87 103 -5 34 -6 26 -3 -32 3 -60 10 -92 33 -140
16 -35 35 -86 42 -115 9 -40 20 -59 45 -78 45 -34 137 -50 207 -36 118 24 153
54 184 160 11 39 26 60 54 83 49 39 101 110 176 234 57 97 76 156 64 205 -3
14 -2 47 3 74 6 34 5 52 -3 60 -8 8 -9 6 -4 -7 4 -10 0 -25 -8 -35 -8 -9 -28
-44 -44 -76 -16 -32 -46 -77 -66 -99 -29 -30 -38 -49 -38 -74 0 -60 -86 -169
-157 -198 -18 -8 -42 -22 -53 -33 -29 -27 -98 -48 -111 -35 -23 23 -23 134 0
207 12 38 27 76 33 83 32 39 122 62 137 35 15 -26 21 -11 27 74 7 80 44 199
70 220 18 15 -17 74 -43 70 -10 -2 -29 1 -43 6 -24 9 -24 8 6 -24z"/>
<path d="M903 1837 c-18 -5 -33 -15 -33 -21 0 -6 -5 -4 -10 4 -13 20 -3 -66
12 -96 11 -24 84 -64 116 -64 25 0 31 15 24 58 -6 39 6 41 40 5 35 -39 46 -62
48 -108 3 -64 1 -72 -25 -103 -30 -36 -35 -109 -14 -191 9 -35 10 -60 3 -79
-8 -23 -16 -27 -54 -30 -97 -7 -166 37 -181 116 -7 39 -8 33 -4 -32 4 -59 13
-97 34 -145 16 -36 33 -84 36 -105 13 -79 111 -126 233 -112 108 13 178 67
202 155 7 25 27 52 64 84 71 61 203 217 221 261 8 19 14 61 14 95 l-1 60 -32
-34 c-17 -18 -47 -41 -66 -50 -56 -27 -80 -55 -80 -90 0 -20 -12 -47 -32 -74
l-33 -42 -21 25 c-12 13 -24 30 -26 37 -8 23 -46 -1 -53 -32 -8 -37 -77 -109
-104 -109 -54 0 -38 210 20 266 28 27 103 40 104 19 2 -25 28 -85 37 -85 6 0
7 7 2 18 -5 9 -9 72 -9 140 l-1 122 36 0 c34 0 38 -3 50 -41 22 -65 70 -91
135 -73 11 3 29 17 39 31 19 26 19 27 -2 99 -12 41 -22 83 -22 93 0 11 -10 25
-21 32 -15 8 -19 8 -15 0 4 -6 1 -11 -6 -11 -21 -1 -55 -33 -63 -60 l-7 -25
21 28 c13 15 31 27 42 27 31 0 53 -73 42 -137 -6 -37 -35 -45 -52 -15 -8 13
-12 14 -19 4 -7 -10 -14 -11 -34 -1 -38 17 -49 48 -27 79 29 41 31 65 10 91
-18 22 -19 22 -15 4 4 -15 -2 -25 -20 -34 -14 -8 -23 -17 -21 -21 3 -5 -2 -11
-11 -14 -33 -13 -62 -5 -100 27 -77 66 -114 84 -94 48 19 -36 12 -58 -21 -70
-55 -19 -84 -13 -130 25 -63 52 -88 63 -126 51z"/>
<path d="M2792 1693 c25 -44 -50 -333 -100 -386 -29 -31 -111 -77 -137 -77
-19 0 -95 -42 -95 -52 0 -11 31 -25 73 -33 23 -5 42 -15 49 -28 9 -17 6 -24
-16 -44 -31 -27 -49 -28 -131 -8 -33 8 -64 10 -70 6 -5 -5 -25 -12 -43 -16
-25 -5 -38 -2 -53 11 -24 22 -24 35 1 64 11 13 20 24 20 25 0 1 -20 24 -45 50
-63 65 -95 109 -105 142 l-8 28 -1 -27 c-1 -37 24 -109 61 -171 17 -29 37 -74
45 -101 27 -89 100 -128 246 -129 116 0 152 26 183 139 12 46 28 73 63 111 66
70 91 154 98 328 l6 131 -27 29 c-18 20 -23 22 -14 8z"/>
<path d="M835 713 c3 -130 4 -140 18 -155 8 -7 17 -33 21 -58 9 -57 30 -80 72
-80 24 0 37 6 45 23 12 21 11 21 -7 7 -19 -14 -19 -14 0 7 15 18 17 32 13 66
-3 23 -3 48 2 55 9 16 -10 124 -26 143 -6 8 -13 28 -15 44 -3 29 -4 30 -64 33
l-61 3 2 -88z"/>
<path d="M3262 684 c-39 -27 -53 -68 -53 -157 0 -201 85 -333 188 -290 23 9
39 10 58 3 50 -19 99 -12 127 18 27 29 58 83 58 103 0 6 8 18 17 25 16 11 19
6 30 -54 6 -37 23 -125 36 -197 l23 -130 39 0 c29 0 39 4 41 18 1 9 -2 15 -7
11 -5 -3 -6 -10 -3 -16 5 -7 2 -8 -5 -3 -9 5 2 22 37 55 28 27 47 51 44 55 -4
4 4 4 18 0 22 -7 23 -6 11 9 -12 14 -11 16 4 16 16 0 17 7 11 61 -6 63 -18 89
-41 89 -7 0 -44 17 -82 39 l-68 39 1 88 c1 49 -1 64 -3 34 -5 -62 -12 -75 -40
-66 -16 5 -18 15 -16 81 1 42 5 81 9 87 4 6 3 8 -3 5 -6 -4 -13 2 -16 13 -3
11 0 20 6 21 7 0 -1 5 -18 11 -16 6 -38 17 -47 26 -26 22 -100 11 -138 -21
-33 -28 -50 -27 -85 5 -10 10 -25 16 -33 13 -7 -2 -11 -1 -8 4 3 5 -8 11 -25
15 -42 8 -41 8 -67 -10z m122 -50 c30 -22 39 -44 30 -69 -6 -14 -15 -16 -50
-10 -47 7 -47 7 -59 -77 -7 -50 -14 -61 -32 -50 -20 13 -33 62 -33 128 0 52 4
68 21 85 26 26 82 22 123 -7z"/>
<path d="M2857 555 c-9 -23 -10 -22 22 -28 52 -11 63 -31 55 -106 -8 -78 -24
-101 -72 -101 -33 0 -34 -1 -30 -34 2 -20 0 -32 -7 -30 -5 2 -17 0 -25 -6 -13
-8 -13 -11 -1 -22 10 -10 12 -10 7 -1 -6 11 6 18 17 11 1 -1 12 4 24 11 20 10
22 9 16 -6 -5 -15 -3 -16 8 -6 7 7 29 13 49 13 29 0 41 6 58 30 12 16 22 33
22 38 0 5 11 14 25 20 28 13 31 10 38 -43 4 -28 4 -28 5 5 2 51 -8 63 -43 50
-15 -6 -29 -9 -31 -8 -2 2 1 30 5 62 16 120 -3 155 -87 164 -40 3 -50 1 -55
-13z"/>
</g>
</svg>
