<?xml version="1.0" standalone="no"?>
<!DOCTYPE svg PUBLIC "-//W3C//DTD SVG 20010904//EN"
 "http://www.w3.org/TR/2001/REC-SVG-20010904/DTD/svg10.dtd">
<svg version="1.0" xmlns="http://www.w3.org/2000/svg"
 width="798.000000pt" height="337.000000pt" viewBox="0 0 798.000000 337.000000"
 preserveAspectRatio="xMidYMid meet">
<metadata>
Created by potrace 1.16, written by Peter Selinger 2001-2019
</metadata>
<g transform="translate(0.000000,337.000000) scale(0.100000,-0.100000)"
fill="#000000" stroke="none">
<path d="M2475 3160 c-245 -22 -477 -130 -650 -305 -130 -130 -215 -275 -272
-460 -25 -84 -27 -103 -27 -270 -1 -165 1 -188 26 -275 33 -118 83 -229 144
-321 26 -38 45 -71 43 -73 -2 -1 -240 -207 -529 -456 -289 -250 -559 -483
-600 -519 -91 -79 -110 -105 -110 -154 0 -35 7 -45 68 -102 140 -132 164 -142
216 -97 15 13 540 574 1058 1129 l49 53 54 -40 c184 -136 395 -202 645 -202
167 -1 285 27 435 101 291 144 483 381 567 704 19 69 22 108 21 242 0 139 -4
173 -26 260 -54 205 -188 419 -341 546 -224 185 -482 265 -771 239z m325 -159
c172 -46 359 -167 475 -308 206 -249 262 -618 141 -919 -121 -299 -399 -518
-718 -565 -98 -14 -267 -6 -358 17 -87 22 -234 91 -313 148 -71 51 -167 149
-217 220 -47 69 -107 202 -132 291 -32 119 -32 357 0 470 99 343 385 601 739
665 79 15 298 4 383 -19z"/>
<path d="M2380 2350 c-200 -6 -218 -12 -251 -83 -15 -33 -19 -66 -19 -155 0
-130 10 -162 64 -210 l37 -32 338 0 c334 0 338 0 371 23 63 42 74 67 78 177 6
137 -3 183 -41 227 -59 67 -77 69 -577 53z m440 -235 l0 -195 -265 0 -265 0 0
195 0 195 265 0 265 0 0 -195z"/>
<path d="M2537 2264 c-4 -4 -7 -31 -7 -61 0 -29 -4 -53 -10 -53 -5 0 -10 20
-10 45 0 33 -4 45 -15 45 -11 0 -15 -12 -15 -51 0 -31 -4 -48 -10 -44 -5 3
-10 19 -10 36 0 16 -4 29 -10 29 -6 0 -10 -33 -10 -79 0 -71 2 -82 22 -95 13
-9 43 -16 72 -16 49 0 52 2 110 63 46 48 56 63 42 65 -10 2 -25 -3 -35 -12
-10 -9 -20 -16 -24 -16 -3 0 -7 26 -9 58 -2 43 -7 57 -18 57 -10 0 -16 -14
-20 -45 l-4 -45 -6 59 c-5 55 -16 76 -33 60z"/>
<path d="M4560 2365 l0 -145 25 0 c25 0 25 2 25 77 l0 77 63 -87 c34 -47 65
-87 70 -87 4 0 7 65 7 145 l0 145 -25 0 c-23 0 -24 -3 -27 -71 l-3 -72 -58 82
c-33 44 -63 81 -68 81 -5 0 -9 -65 -9 -145z"/>
<path d="M7160 2365 l0 -145 25 0 c23 0 24 3 27 71 l3 71 58 -81 c32 -44 60
-81 63 -81 2 0 4 65 4 145 l0 145 -25 0 c-23 0 -24 -3 -27 -67 l-3 -68 -55 77
c-30 43 -58 78 -62 78 -5 0 -8 -65 -8 -145z"/>
<path d="M4229 2373 c-23 -71 -44 -134 -47 -140 -2 -9 5 -13 22 -13 21 0 29 7
37 30 9 24 17 30 39 30 22 0 30 -6 39 -30 8 -23 16 -30 37 -30 17 0 24 4 22
13 -3 6 -24 69 -47 140 -24 70 -46 127 -51 127 -5 0 -27 -57 -51 -127z"/>
<path d="M5468 2370 c-23 -72 -44 -126 -46 -120 -2 5 -24 10 -48 10 l-44 0 0
115 0 115 -25 0 -25 0 0 -135 0 -135 96 0 95 0 11 31 c9 26 15 30 41 27 24 -2
33 -9 37 -28 4 -18 13 -26 34 -28 21 -3 27 0 24 10 -3 7 -24 70 -47 141 -24
70 -46 127 -51 127 -5 0 -28 -59 -52 -130z"/>
<path d="M3880 2355 l0 -135 145 0 c138 0 145 1 145 20 0 17 -7 20 -50 20
l-50 0 0 40 0 40 40 0 c33 0 40 3 40 20 0 17 -7 20 -40 20 -39 0 -40 1 -40 35
l0 35 50 0 c43 0 50 3 50 20 0 18 -7 20 -75 20 l-75 0 0 -115 0 -115 -45 0
-45 0 0 115 0 115 -25 0 -25 0 0 -135z"/>
<path d="M4390 2355 l0 -135 25 0 c23 0 25 4 25 48 l0 47 30 -47 c23 -37 36
-48 55 -48 31 0 31 5 0 55 -23 37 -23 40 -7 58 24 27 23 108 -2 136 -15 16
-31 21 -73 21 l-53 0 0 -135z"/>
<path d="M4885 2476 c-15 -11 -19 -27 -20 -78 -1 -35 -5 -69 -9 -76 -10 -17
12 -80 32 -91 9 -5 41 -12 70 -16 l52 -7 0 46 c0 42 -2 46 -25 46 -16 0 -25
-6 -25 -15 0 -19 -34 -20 -50 0 -6 8 -9 23 -5 35 5 15 15 20 41 20 27 0 34 4
34 20 0 13 -9 22 -25 26 -35 9 -51 30 -35 49 9 11 16 12 31 2 15 -9 22 -8 35
5 14 14 15 20 4 32 -16 20 -80 21 -105 2z"/>
<path d="M5120 2355 l0 -135 25 0 c23 0 25 4 25 45 0 42 2 45 28 45 33 0 45 8
61 37 21 41 9 114 -23 135 -6 4 -35 8 -63 8 l-53 0 0 -135z"/>
<path d="M5606 2443 c15 -27 33 -57 41 -68 8 -11 13 -47 13 -87 0 -61 2 -68
20 -68 18 0 20 7 20 68 0 40 5 76 13 87 8 11 26 41 41 68 l28 47 -29 0 c-22 0
-33 -8 -47 -35 -11 -19 -22 -35 -26 -35 -4 0 -15 16 -26 35 -14 27 -25 35 -47
35 l-29 0 28 -47z"/>
<path d="M5872 2478 c3 -7 24 -70 48 -141 24 -70 49 -126 54 -124 5 2 19 32
31 68 l22 64 21 -58 c12 -32 22 -62 22 -68 0 -6 5 -9 12 -7 10 4 98 246 98
270 0 4 -11 8 -24 8 -22 0 -28 -9 -47 -69 -13 -39 -26 -68 -29 -66 -4 2 -15
31 -25 65 -10 33 -23 59 -29 57 -5 -2 -20 -32 -32 -68 -13 -39 -24 -58 -28
-49 -3 8 -14 40 -24 70 -16 47 -23 55 -47 58 -20 3 -26 0 -23 -10z"/>
<path d="M6270 2470 c0 -16 7 -20 30 -20 l30 0 0 -115 c0 -108 1 -115 20 -115
19 0 20 7 20 115 l0 115 30 0 c23 0 30 4 30 20 0 18 -7 20 -80 20 -73 0 -80
-2 -80 -20z"/>
<path d="M6450 2355 l0 -135 25 0 c24 0 25 3 25 60 l0 60 35 0 35 0 0 -60 c0
-57 1 -60 25 -60 l25 0 0 135 0 135 -25 0 c-24 0 -25 -3 -25 -55 l0 -55 -35 0
-35 0 0 55 c0 52 -1 55 -25 55 l-25 0 0 -135z"/>
<path d="M6747 2472 c-27 -30 -20 -66 23 -121 44 -56 50 -81 20 -81 -11 0 -20
5 -20 10 0 15 -26 12 -40 -5 -10 -13 -10 -19 5 -35 26 -29 89 -27 109 2 27 39
20 79 -24 132 -46 55 -50 69 -17 61 15 -4 28 -1 36 9 33 39 -58 66 -92 28z"/>
<path d="M7007 2479 c-24 -14 -57 -85 -57 -124 0 -40 33 -111 58 -124 26 -14
87 -14 113 -1 15 9 19 22 19 70 l0 60 -45 0 c-38 0 -45 -3 -45 -20 0 -13 7
-20 20 -20 14 0 20 -7 20 -24 0 -34 -25 -39 -57 -12 -23 20 -28 32 -28 71 0
39 5 51 28 71 22 19 32 22 47 14 31 -16 40 -12 40 20 0 29 -1 30 -47 30 -27 0
-56 -5 -66 -11z"/>
<path d="M7385 2466 c-22 -34 -14 -67 31 -121 35 -43 44 -75 21 -75 -7 0 -18
5 -25 12 -9 10 -16 8 -29 -5 -28 -28 -6 -52 48 -52 l44 0 3 63 c3 57 0 66 -28
101 -37 48 -37 53 -2 49 23 -3 27 1 27 22 0 22 -5 25 -37 28 -30 3 -40 -1 -53
-22z"/>
</g>
</svg>
